# xmcd
#
# Track frame offsets: 
#        150
#        24517
#        35738
#        49801
#        70640
#        99088
#        120861
#        152012
#        167896
#        185870
#        207814
#        231640
#
# Disc length: 3311 seconds
#
# Revision: 0
# Processed by: cddbd v1.5.1PL2 Copyright (c) Steve Scherf et al.
# Submitted via: ExactAudioCopy v0.95b3
#
DISCID=9d0ced0c
DTITLE=Van Morrison - Colston Hall
DYEAR=1986
DGENRE=Celtic
TTITLE0=Moondance
TTITLE1=Celtic Swing
TTITLE2=Northern Muse (Solid Ground)
TTITLE3=Vanlose Stairway
TTITLE4=It's All In The Game
TTITLE5=Help Me
TTITLE6=Tir Na Nog
TTITLE7=She Gives Me Religion
TTITLE8=Cleaning Windows
TTITLE9=A Sense Of Wonder
TTITLE10=And The Healing Has Begun
TTITLE11=Dweller On The Threshold
EXTD=
EXTT0=
EXTT1=
EXTT2=
EXTT3=
EXTT4=
EXTT5=
EXTT6=
EXTT7=
EXTT8=
EXTT9=
EXTT10=
EXTT11=
PLAYORDER=
